<svg width="312" height="465" viewBox="0 0 312 465" fill="none" xmlns="http://www.w3.org/2000/svg">
<path d="M203.142 207.669L218.928 280.269L278.278 212.751L302.453 234.12C302.453 234.12 218.372 359.282 184.817 351.102C151.262 342.923 160.4 295.442 153.269 244.405C146.137 193.367 203.142 207.669 203.142 207.669Z" fill="white"/>
<path d="M188.057 352.7C186.869 352.701 185.684 352.563 184.527 352.288C158.975 346.045 157.403 318.408 155.517 283.415C154.816 270.904 154.067 257.981 152.206 244.574C150.199 230.223 152.979 219.527 160.498 212.775C175.22 199.562 202.417 206.193 203.553 206.483C203.77 206.544 203.967 206.662 204.124 206.823C204.281 206.984 204.392 207.184 204.448 207.403L219.726 277.583L277.48 211.856C277.697 211.612 278.001 211.464 278.326 211.444C278.643 211.428 278.954 211.532 279.197 211.735L303.372 233.127C303.592 233.32 303.734 233.586 303.77 233.877C303.805 234.167 303.732 234.461 303.565 234.7C300.036 239.758 223.764 352.675 188.057 352.7ZM186.655 207.04C178.363 207.04 168.645 208.589 161.996 214.59C155.348 220.592 152.592 230.756 154.478 244.235C156.364 257.715 157.089 270.71 157.814 283.27C159.748 317.271 161.295 344.109 185.083 349.941C198.307 353.135 222.555 334.138 255.191 294.91C277.722 267.83 297.159 239.589 300.761 234.41L278.351 214.518L219.823 281.14C219.677 281.311 219.487 281.437 219.273 281.505C219.06 281.574 218.832 281.581 218.614 281.527C218.395 281.471 218.196 281.355 218.038 281.193C217.88 281.031 217.77 280.828 217.72 280.608L202.103 208.782C197.027 207.671 191.85 207.087 186.655 207.04Z" fill="#3C4242"/>
<path d="M9.52501 421.96C4.69001 454.678 5.43943 463.681 5.43943 463.681L205.899 459.664L179.524 344.98L25.819 361.46C18.2416 380.985 12.779 401.268 9.52501 421.96Z" fill="#3C4242"/>
<path d="M5.43942 464.891C5.13716 464.898 4.84361 464.789 4.61888 464.587C4.39415 464.384 4.25526 464.103 4.23067 463.802C4.23067 463.415 3.45707 454.267 8.31625 421.791C11.6056 401.001 17.1002 380.623 24.7069 361C24.791 360.798 24.927 360.623 25.1012 360.491C25.2753 360.359 25.4813 360.276 25.6981 360.25L179.379 343.77C179.671 343.733 179.968 343.806 180.209 343.976C180.451 344.147 180.62 344.401 180.684 344.689L207.083 459.397C207.123 459.574 207.122 459.757 207.08 459.934C207.038 460.11 206.956 460.274 206.841 460.414C206.735 460.557 206.596 460.674 206.437 460.754C206.277 460.833 206.101 460.875 205.923 460.874L5.4636 464.891H5.43942ZM10.7096 422.154C6.81739 448.144 6.55148 459.18 6.59983 462.447L204.376 458.502L178.581 346.287L26.6892 362.573C19.3054 381.822 13.9498 401.791 10.7096 422.154Z" fill="#3C4242"/>
<path d="M7.42113 409.691L195.382 388.516C177.879 276.687 168.958 335.808 190.112 231.216L212.401 225.166C202.054 171.127 176.622 147.411 176.622 147.411C151.794 102.665 91.26 128.85 91.26 128.85C91.26 128.85 21.8294 134.416 3.91575 194.48C-7.95417 234.216 12.4253 289.634 14.9637 338.01C15.6648 351.538 10.999 350.981 7.42113 409.691Z" fill="#8A33FD"/>
<path d="M143.043 157.527C136.056 156.462 129.336 155.276 122.107 157.212C111.374 160.14 101.921 166.36 90.8732 168.949C79.0758 171.684 66.2147 171.78 54.1514 172.337C50.6218 172.506 54.4415 176.983 51.3954 175.168C40.6859 168.78 39.8398 154.235 38.8486 143.321C36.2173 118.104 37.0306 92.6453 41.2661 67.6478C45.3275 45.8678 49.534 25.2252 70.6387 14.0932C86.014 5.9862 107.627 1.14619 124.476 7.14779C141.326 13.1494 155.396 28.5648 161.271 45.6258C167.774 64.5018 169.901 83.644 180.828 100.923C185.663 108.546 191.635 115.975 192.916 124.905C194.318 135.674 187.936 146.516 178.774 152.324C169.611 158.132 158.176 159.584 147.346 158.132C145.847 157.962 144.445 157.744 143.043 157.527Z" fill="white"/>
<path d="M52.4112 176.814C51.8219 176.751 51.2572 176.543 50.7673 176.209C39.9611 169.772 38.6798 155.905 37.7612 144.749V143.418C35.1986 114.789 35.9964 89.936 40.1787 67.4058C44.095 46.376 48.1564 24.6202 70.1798 13.0042C84.0321 5.7442 106.708 -0.523602 124.985 5.9862C141.907 12.012 156.243 27.0402 162.504 45.2144C164.632 51.3612 166.3 57.6048 167.919 63.6548C171.401 76.5534 174.664 88.726 181.941 100.245C182.811 101.649 183.73 103.028 184.648 104.408C188.807 110.675 193.11 117.161 194.077 124.736C195.479 135.384 189.58 146.879 179.402 153.316C168.524 160.213 155.904 160.382 147.25 159.317L142.922 158.688L141.883 158.543C135.331 157.527 129.118 156.583 122.543 158.374C117.575 159.851 112.726 161.703 108.038 163.915C102.601 166.495 96.9357 168.561 91.1154 170.086C80.8343 172.123 70.3855 173.192 59.9055 173.281L54.1518 173.523C54.0008 173.487 53.8435 173.487 53.6925 173.523C53.6501 173.804 53.6501 174.089 53.6925 174.37C53.8134 174.735 53.8228 175.128 53.7194 175.499C53.6161 175.87 53.4047 176.201 53.1123 176.451C52.9159 176.634 52.6735 176.759 52.4112 176.814ZM107.844 5.72C95.0683 6.00957 82.5325 9.25649 71.2194 15.2064C50.2355 26.2658 46.2949 47.4166 42.4753 67.8898C38.3172 90.2022 37.6403 114.838 40.0578 143.249L40.1787 144.58C41.0973 154.913 42.2094 167.715 51.3233 173.62C51.323 173.04 51.519 172.477 51.8794 172.022C52.1573 171.709 52.5004 171.46 52.8845 171.292C53.2687 171.125 53.6847 171.044 54.1035 171.054L59.8571 170.812C70.1767 170.786 80.4713 169.798 90.6077 167.86C96.2477 166.359 101.735 164.334 106.998 161.81C111.784 159.561 116.729 157.668 121.793 156.147C128.901 154.235 135.356 155.228 142.173 156.147L143.213 156.317C144.615 156.51 146.017 156.728 147.443 156.897C155.735 157.938 167.75 157.793 178.025 151.259C187.404 145.33 192.868 134.779 191.587 125.05C190.668 118.032 186.534 111.789 182.545 105.69C181.627 104.287 180.684 102.883 179.789 101.479C172.319 89.6456 168.862 76.6986 165.502 64.2114C163.882 58.2098 162.214 52.1114 160.135 45.9162C154.091 28.4196 140.287 13.9722 124.066 8.18839C118.837 6.45428 113.352 5.61968 107.844 5.72Z" fill="#3C4242"/>
<path d="M151.19 56.9756C151.19 56.9756 163.664 86.0156 159.942 108.764C159.064 115.138 156.348 121.117 152.128 125.97C147.907 130.823 142.364 134.338 136.177 136.085L138.595 175.943C138.595 175.943 140.07 196.319 114.903 194.746C107.622 194.277 100.58 191.957 94.442 188.007C88.3045 184.056 83.274 178.605 79.8256 172.168L72.3555 99.0594C72.3555 99.0594 99.6007 80.982 95.4909 54.8218C95.6602 54.8218 130.303 68.9788 151.19 56.9756Z" fill="white"/>
<path d="M117.78 196.029H115C107.507 195.503 100.268 193.089 93.9573 189.01C87.6466 184.931 82.4692 179.32 78.907 172.7C78.8857 172.564 78.8857 172.425 78.907 172.289L71.437 99.1804C71.4234 98.9589 71.4675 98.7376 71.565 98.5382C71.6624 98.3389 71.8099 98.1682 71.993 98.043C72.2347 97.8736 98.5855 80.0866 94.5724 55.0154C94.5455 54.8034 94.574 54.5879 94.6552 54.3903C94.7364 54.1926 94.8675 54.0194 95.0356 53.8877C95.2038 53.7559 95.4032 53.6702 95.6144 53.6388C95.8256 53.6074 96.0414 53.6315 96.2405 53.7086C96.579 53.7086 130.569 67.4784 150.707 55.9108C150.864 55.8449 151.032 55.811 151.202 55.811C151.373 55.811 151.541 55.8449 151.698 55.9108C152.018 56.0345 152.278 56.2773 152.423 56.5884C152.931 57.7742 164.994 86.1366 161.247 109.054C160.335 115.474 157.637 121.507 153.46 126.463C149.283 131.419 143.796 135.097 137.628 137.078L140.046 175.967C140.145 178.579 139.728 181.184 138.819 183.634C137.911 186.084 136.528 188.331 134.751 190.245C130.811 194.069 125.13 196.029 117.78 196.029ZM81.1795 171.829C84.5654 178.022 89.4532 183.263 95.393 187.069C101.333 190.875 108.134 193.124 115.17 193.609C123.123 194.117 129.094 192.399 132.938 188.551C136.028 185.15 137.683 180.684 137.556 176.088L135.138 136.231C135.124 135.944 135.211 135.661 135.383 135.432C135.555 135.202 135.802 135.039 136.081 134.972C142.049 133.32 147.397 129.94 151.453 125.255C155.509 120.571 158.092 114.791 158.878 108.643C162.069 89.0406 152.979 64.4776 150.707 58.7422C132.116 68.4222 104.774 59.4924 97.2317 56.7578C99.6492 80.0866 77.8917 96.8572 73.927 99.7128L81.1795 171.829Z" fill="#3C4242"/>
<path d="M137.725 110.966C135.69 110.95 133.66 110.764 131.657 110.409C131.501 110.377 131.353 110.315 131.222 110.226C131.09 110.137 130.977 110.023 130.89 109.891C130.802 109.758 130.742 109.61 130.711 109.454C130.681 109.298 130.682 109.137 130.714 108.981C130.743 108.824 130.803 108.674 130.891 108.541C130.979 108.407 131.093 108.293 131.226 108.205C131.359 108.117 131.509 108.057 131.666 108.028C131.823 107.999 131.984 108.002 132.14 108.038C132.14 108.038 140.191 109.586 143.986 107.312C144.566 104.166 136.951 93.7112 131.391 87.2498C131.179 87.0059 131.073 86.6879 131.096 86.3656C131.118 86.0434 131.268 85.7434 131.512 85.5316C131.755 85.3198 132.073 85.2136 132.395 85.2363C132.717 85.2589 133.017 85.4087 133.228 85.6526C135.646 88.4114 147.298 102.375 146.476 107.433C146.43 107.824 146.294 108.2 146.081 108.531C145.867 108.863 145.58 109.141 145.243 109.344C142.92 110.528 140.329 111.087 137.725 110.966Z" fill="#3C4242"/>
<path d="M128.925 123.985C127.458 123.988 125.993 123.858 124.549 123.598C117.698 122.381 111.512 118.74 107.119 113.337C106.974 113.055 106.946 112.726 107.041 112.422C107.136 112.119 107.346 111.865 107.627 111.716C107.91 111.568 108.24 111.535 108.546 111.625C108.853 111.716 109.113 111.922 109.271 112.2C113.339 116.965 118.938 120.165 125.105 121.251C133.276 122.582 141.399 119.581 149.28 112.321C149.393 112.2 149.53 112.103 149.682 112.037C149.834 111.971 149.998 111.938 150.164 111.938C150.33 111.938 150.494 111.972 150.646 112.039C150.798 112.105 150.934 112.202 151.047 112.323C151.16 112.444 151.247 112.588 151.302 112.744C151.358 112.901 151.38 113.067 151.369 113.232C151.357 113.398 151.312 113.559 151.235 113.706C151.159 113.853 151.053 113.983 150.924 114.088C143.768 120.67 136.419 123.985 128.925 123.985Z" fill="#3C4242"/>
<path d="M136.177 136.085C136.177 136.085 115.097 140.127 102.671 137.779C102.671 137.779 117.998 168.32 138.208 166.819L136.177 136.085Z" fill="#3C4242"/>
<path d="M136.83 168.126C116.837 168.126 102.26 139.57 101.631 138.312C101.536 138.111 101.497 137.887 101.518 137.666C101.54 137.444 101.62 137.233 101.752 137.053C101.883 136.87 102.065 136.728 102.276 136.647C102.486 136.565 102.716 136.547 102.937 136.594C115.024 138.868 135.79 134.948 136.008 134.9C136.177 134.867 136.351 134.872 136.518 134.914C136.685 134.956 136.841 135.033 136.975 135.142C137.108 135.246 137.218 135.378 137.297 135.528C137.376 135.678 137.423 135.843 137.434 136.013L139.465 166.771C139.478 166.93 139.46 167.09 139.411 167.242C139.362 167.394 139.284 167.535 139.181 167.656C139.077 167.777 138.951 167.877 138.809 167.95C138.667 168.022 138.512 168.066 138.353 168.078L136.83 168.126ZM104.967 139.328C108.739 145.935 121.334 165.706 136.854 165.706L134.993 137.513C130.569 138.312 115.725 140.635 104.967 139.328Z" fill="#3C4242"/>
<path d="M258.189 137.489L310.576 134.924L284.322 246.099L227.994 251.64L258.189 137.489Z" fill="#3C4242"/>
<path d="M228.043 252.85C227.869 252.854 227.697 252.818 227.538 252.747C227.379 252.676 227.238 252.571 227.124 252.439C226.995 252.288 226.904 252.108 226.858 251.914C226.811 251.721 226.812 251.519 226.858 251.326L257.053 137.199C257.116 136.949 257.259 136.726 257.459 136.564C257.66 136.403 257.908 136.311 258.165 136.303L310.528 133.714C310.717 133.698 310.906 133.73 311.079 133.806C311.252 133.882 311.403 134 311.519 134.149C311.642 134.295 311.728 134.467 311.77 134.652C311.812 134.838 311.809 135.03 311.761 135.214L285.531 246.389C285.472 246.634 285.337 246.855 285.147 247.019C284.956 247.184 284.718 247.285 284.468 247.309L228.043 252.85ZM259.18 138.675L229.639 250.261L283.404 244.985L309.078 136.206L259.18 138.675Z" fill="#3C4242"/>
<path d="M190.112 232.45C189.804 232.45 189.507 232.333 189.282 232.121C189.057 231.91 188.922 231.621 188.903 231.312C187.853 215.292 184.313 199.534 178.411 184.606C178.281 184.314 178.271 183.982 178.384 183.683C178.497 183.383 178.724 183.141 179.016 183.009C179.16 182.941 179.316 182.903 179.475 182.896C179.634 182.89 179.793 182.916 179.942 182.972C180.091 183.029 180.227 183.115 180.342 183.225C180.457 183.335 180.549 183.468 180.611 183.614C186.636 198.801 190.25 214.838 191.321 231.143C191.341 231.467 191.233 231.785 191.02 232.029C190.808 232.274 190.508 232.425 190.185 232.45H190.112Z" fill="#3C4242"/>
<path d="M107.917 85.338C107.797 85.3615 107.674 85.3615 107.554 85.338C107.251 85.2431 106.997 85.0324 106.848 84.7516C106.698 84.4708 106.666 84.1424 106.756 83.8376C107.741 80.7172 109.912 78.1095 112.8 76.5776C114.253 76.0105 115.815 75.7749 117.37 75.8879C118.926 76.0009 120.437 76.4598 121.793 77.231C122.059 77.3823 122.257 77.6287 122.349 77.9206C122.44 78.2125 122.418 78.5283 122.286 78.8044C122.154 79.0804 121.923 79.2963 121.639 79.4085C121.354 79.5206 121.038 79.5208 120.754 79.409C119.705 78.8017 118.535 78.4328 117.328 78.3283C116.12 78.2237 114.905 78.3861 113.767 78.804C111.546 80.0088 109.869 82.017 109.077 84.4184C109.013 84.6787 108.864 84.9103 108.654 85.0768C108.444 85.2432 108.185 85.3351 107.917 85.338Z" fill="#3C4242"/>
<path d="M141.399 78.1748H141.182C140.866 78.1104 140.588 77.9249 140.408 77.6581C140.227 77.3913 140.158 77.0643 140.215 76.747C140.405 75.7523 140.822 74.8152 141.435 74.009C142.047 73.2029 142.838 72.5497 143.744 72.1006C145.872 71.2536 148.579 71.9312 151.456 74.085C151.686 74.2819 151.834 74.5579 151.87 74.8585C151.906 75.1591 151.829 75.4624 151.653 75.7085C151.477 75.9547 151.215 76.1258 150.919 76.1882C150.623 76.2505 150.314 76.1995 150.054 76.0452C147.806 74.4238 145.944 73.843 144.663 74.327C144.132 74.629 143.674 75.043 143.319 75.5403C142.964 76.0376 142.721 76.6063 142.608 77.2068C142.547 77.4821 142.394 77.7283 142.174 77.9044C141.955 78.0805 141.681 78.1759 141.399 78.1748Z" fill="#3C4242"/>
<path d="M37.4708 105.884C37.4708 105.884 40.4201 114.741 31.0644 140.393C21.7087 166.045 22.0955 185.695 45.5694 189.229C69.0433 192.762 82.7748 189.93 85.8692 169.869C88.9636 149.807 70.9048 127.785 70.9048 127.785" fill="white"/>
<path d="M60.2192 191.721C55.2536 191.659 50.2998 191.222 45.3999 190.414C36.7936 189.132 30.7015 185.574 27.3412 179.912C22.3611 171.49 23.2073 158.422 29.9279 139.957C38.9452 115.249 36.3584 106.344 36.3343 106.271C36.2835 106.112 36.2645 105.945 36.2783 105.778C36.2921 105.612 36.3385 105.45 36.4148 105.302C36.4911 105.154 36.5959 105.022 36.7231 104.914C36.8503 104.806 36.9975 104.725 37.1562 104.674C37.315 104.623 37.4822 104.604 37.6482 104.618C37.8143 104.632 37.9761 104.678 38.1242 104.754C38.2724 104.831 38.4041 104.936 38.5117 105.063C38.6194 105.19 38.701 105.338 38.7518 105.497C38.7518 105.884 41.7253 115.177 32.3212 140.804C25.8665 158.543 25.0687 170.933 29.5411 178.677C32.563 183.784 37.9057 186.833 45.8834 188.019C68.1969 191.382 81.7349 189.471 84.8051 169.748C87.7787 150.557 70.3001 128.753 70.1067 128.608C70.0044 128.486 69.9275 128.346 69.8805 128.194C69.8336 128.042 69.8175 127.883 69.8333 127.725C69.8491 127.567 69.8964 127.414 69.9724 127.274C70.0485 127.135 70.1517 127.012 70.276 126.914C70.5235 126.713 70.84 126.618 71.1569 126.65C71.4738 126.682 71.7653 126.837 71.9682 127.083C72.7177 128.003 90.3412 149.928 87.1743 170.207C84.5151 186.567 74.7484 191.721 60.2192 191.721Z" fill="#3C4242"/>
<path d="M290.076 251.64C309.416 224.173 309.416 224.173 308.328 214.711C307.482 207.451 303.855 201.087 300.06 195.085C295.225 187.438 284.66 175.725 280.72 191.334C278.762 198.836 275.74 208.056 277.819 215.752C279.753 222.867 285.071 228.699 287.997 235.378" fill="white"/>
<path d="M290.076 252.85C289.825 252.849 289.581 252.773 289.374 252.633C289.116 252.443 288.941 252.161 288.886 251.844C288.832 251.528 288.903 251.203 289.084 250.939C308.183 223.859 308.183 223.859 307.119 214.856C306.297 207.596 302.501 201.208 299.02 195.738C295.539 190.269 290.027 184.389 286.449 184.921C284.032 185.308 282.533 188.793 281.783 191.649L281.082 194.262C279.245 201.135 277.118 208.927 278.907 215.437C280.235 219.504 282.14 223.359 284.564 226.884C286.225 229.45 287.711 232.126 289.012 234.894C289.14 235.189 289.146 235.523 289.028 235.823C288.91 236.122 288.678 236.363 288.383 236.491C288.088 236.62 287.755 236.625 287.455 236.507C287.156 236.389 286.916 236.157 286.788 235.862C285.528 233.195 284.091 230.616 282.485 228.142C279.936 224.417 277.941 220.341 276.562 216.042C274.628 208.903 276.828 200.772 278.762 193.609L279.463 191.019C280.792 185.841 283.016 182.985 286.062 182.501C292.372 181.509 299.141 191.358 301.075 194.407C304.701 200.119 308.618 206.846 309.536 214.542C310.697 224.464 310.697 224.464 291.067 252.318C290.958 252.482 290.811 252.617 290.638 252.709C290.465 252.802 290.272 252.851 290.076 252.85Z" fill="#3C4242"/>
<path d="M52.6289 288.86C52.6289 288.86 139.417 369.156 164.221 359.984C189.024 350.812 217.913 312.528 234.933 285.835C251.952 259.142 273.999 222.262 277.239 205.83C280.478 189.398 275.402 177.129 269.261 180.202C263.121 183.275 240.13 205.806 240.13 205.806C240.13 205.806 247.89 183.784 244.264 183.687C240.638 183.59 229.953 193.367 226.399 224.827L152.665 299.847L92.2276 240.847" fill="white"/>
<path d="M159.821 361.871C130.158 361.871 55.1671 292.829 51.8068 289.731C51.6935 289.619 51.6035 289.485 51.5422 289.337C51.4808 289.19 51.4492 289.032 51.4492 288.872C51.4492 288.712 51.4808 288.554 51.5422 288.407C51.6035 288.259 51.6935 288.125 51.8068 288.013C52.0368 287.79 52.3446 287.665 52.665 287.665C52.9854 287.665 53.2932 287.79 53.5232 288.013C53.7408 288.231 75.4741 308.293 99.9392 326.951C132.044 351.441 154.14 362.501 163.882 358.895C191.998 348.513 224.658 299.895 233.99 285.23C251.468 257.811 272.96 221.729 276.127 205.66C278.544 193.923 276.32 184.219 272.911 181.63C272.502 181.272 271.991 181.049 271.45 180.993C270.909 180.936 270.364 181.049 269.889 181.315C263.967 184.268 241.266 206.532 241.024 206.749C240.834 206.942 240.583 207.062 240.313 207.088C240.044 207.115 239.774 207.046 239.55 206.895C239.317 206.754 239.14 206.538 239.048 206.283C238.955 206.027 238.953 205.748 239.042 205.491C242.016 197.045 244.627 187.075 244.022 184.994C241.605 185.502 231.234 193.343 227.656 224.899C227.613 225.168 227.496 225.42 227.317 225.625L153.584 300.645C153.473 300.758 153.342 300.848 153.196 300.909C153.051 300.97 152.895 301.001 152.737 301.001C152.58 301.001 152.424 300.97 152.278 300.909C152.133 300.848 152.002 300.758 151.891 300.645L91.4538 241.646C91.2229 241.421 91.0907 241.114 91.0862 240.792C91.0817 240.469 91.2052 240.159 91.4296 239.928C91.654 239.697 91.9609 239.564 92.2828 239.56C92.6047 239.555 92.9152 239.679 93.146 239.903L152.834 297.983L225.359 224.101C229.01 192.81 239.864 182.428 244.336 182.428C244.651 182.427 244.961 182.506 245.236 182.659C245.511 182.811 245.742 183.032 245.908 183.3C247.528 185.72 245.062 194.77 242.91 201.425C249.679 194.916 263.991 181.436 268.802 179.04C269.683 178.573 270.681 178.375 271.673 178.469C272.666 178.564 273.609 178.947 274.386 179.573C279.076 183.179 280.817 194.286 278.496 205.999C275.256 222.455 253.62 258.804 236.02 286.416C223.933 305.413 192.747 350.691 164.704 361.049C163.139 361.616 161.485 361.895 159.821 361.871Z" fill="#3C4242"/>
<path d="M112.945 101.649C109.734 101.667 106.584 100.769 103.864 99.0619C101.143 97.3545 98.9636 94.9074 97.5803 92.0064C96.197 89.1055 95.6668 85.8704 96.0516 82.6791C96.4365 79.4877 97.7204 76.4719 99.7535 73.9837C101.787 71.4956 104.485 69.6379 107.533 68.6275C110.582 67.6172 113.855 67.496 116.969 68.278C120.084 69.0601 122.912 70.7131 125.123 73.0441C127.335 75.375 128.838 78.2877 129.457 81.4418C130.323 85.813 129.433 90.3496 126.98 94.0685C124.527 97.7875 120.71 100.389 116.354 101.31C115.231 101.531 114.09 101.644 112.945 101.649ZM112.945 70.4066C111.979 70.3965 111.014 70.4939 110.069 70.697C107.239 71.2413 104.635 72.6168 102.59 74.6483C100.544 76.6798 99.1494 79.2751 98.5833 82.1033C98.0171 84.9315 98.3053 87.8644 99.411 90.528C100.517 93.1916 102.39 95.4652 104.792 97.0588C107.193 98.6524 110.015 99.4939 112.896 99.4759C115.777 99.4579 118.588 98.5812 120.97 96.9577C123.351 95.3342 125.196 93.0374 126.269 90.3602C127.341 87.683 127.592 84.7467 126.991 81.9258C126.31 78.6963 124.55 75.7955 122.001 73.7015C119.452 71.6076 116.267 70.4454 112.97 70.4066H112.945Z" fill="#3C4242"/>
<path d="M148.603 94.3404C145.58 94.3037 142.623 93.4572 140.037 91.8888C137.452 90.3205 135.334 88.0875 133.903 85.4222C132.471 82.7568 131.78 79.7563 131.899 76.7327C132.018 73.709 132.945 70.7726 134.582 68.2286C136.433 65.4643 139.058 63.3074 142.127 62.0271C145.196 60.7468 148.574 60.4 151.839 61.0299C155.104 61.6598 158.111 63.2385 160.485 65.5689C162.859 67.8993 164.494 70.8781 165.187 74.1334C166.053 78.5046 165.163 83.0412 162.71 86.7601C160.258 90.4791 156.44 93.0808 152.084 94.0016C150.938 94.227 149.772 94.3405 148.603 94.3404ZM148.603 63.0982C147.629 63.099 146.657 63.1963 145.702 63.3886C142.872 63.9329 140.269 65.3084 138.223 67.3399C136.178 69.3714 134.783 71.9667 134.217 74.7949C133.651 77.6231 133.939 80.556 135.044 83.2196C136.15 85.8832 138.023 88.1567 140.425 89.7504C142.827 91.344 145.648 92.1855 148.529 92.1675C151.411 92.1495 154.222 91.2728 156.603 89.6493C158.985 88.0258 160.83 85.729 161.902 83.0518C162.974 80.3746 163.226 77.4383 162.625 74.6174C161.944 71.3919 160.188 68.4942 157.644 66.4006C155.1 64.3071 151.92 63.1425 148.627 63.0982H148.603Z" fill="#3C4242"/>
<path d="M127.982 81.466C127.761 81.4707 127.543 81.4119 127.353 81.2966C127.217 81.2169 127.098 81.1107 127.003 80.9842C126.909 80.8578 126.84 80.7137 126.802 80.5604C126.764 80.4071 126.756 80.2477 126.781 80.0915C126.805 79.9353 126.86 79.7856 126.943 79.651C127.282 79.1073 127.727 78.6365 128.25 78.2661C128.773 77.8958 129.364 77.6331 129.989 77.4935C130.615 77.3539 131.261 77.3401 131.892 77.4529C132.523 77.5657 133.125 77.8029 133.663 78.1506C133.907 78.3179 134.082 78.5689 134.153 78.8562C134.225 79.1436 134.189 79.4472 134.052 79.7096C133.915 79.972 133.686 80.1751 133.41 80.2802C133.133 80.3854 132.828 80.3854 132.551 80.2802C130.134 79.046 129.118 80.6916 129.022 80.8852C128.913 81.0636 128.76 81.2108 128.578 81.3126C128.396 81.4144 128.191 81.4672 127.982 81.466Z" fill="#3C4242"/>
<path d="M97.0625 84.854L68.0283 88.3872L97.0625 84.854Z" fill="white"/>
<path d="M68.0286 89.5972C67.708 89.6165 67.3929 89.5075 67.1526 89.2941C66.9123 89.0808 66.7665 88.7807 66.7473 88.4598C66.7281 88.1389 66.837 87.8235 67.0501 87.5829C67.2631 87.3424 67.5629 87.1965 67.8835 87.1772L96.8935 83.6198C97.0511 83.5996 97.2111 83.6114 97.3641 83.6544C97.517 83.6974 97.6598 83.7707 97.7838 83.8701C97.9079 83.9694 98.0107 84.0927 98.0862 84.2327C98.1616 84.3726 98.2082 84.5263 98.2232 84.6846C98.2643 85.0022 98.178 85.3232 97.9832 85.5773C97.7883 85.8313 97.5008 85.9976 97.1836 86.0398L68.1736 89.573L68.0286 89.5972Z" fill="#3C4242"/>
<path d="M70.1794 98.9384C70.1794 98.9384 60.2676 65.4214 73.5397 42.6008C84.5393 23.6764 113.477 10.5842 134.775 9.88239C129.649 5.63235 123.416 2.93887 116.811 2.11986C110.205 1.30085 103.504 2.39049 97.4971 5.26018C75.4012 14.9402 63.6521 25.8544 59.2765 45.6984C53.0393 74.3996 70.1794 98.9384 70.1794 98.9384Z" fill="#3C4242"/>
<path d="M70.1796 100.1C69.9865 100.097 69.7966 100.05 69.6247 99.9618C69.4528 99.8736 69.3035 99.747 69.1884 99.5918C69.0192 99.3256 51.8066 74.2786 58.1163 45.408C62.3227 26.048 73.2498 14.4804 97.038 4.09861C103.283 1.16107 110.231 0.0565444 117.078 0.913241C123.924 1.76994 130.388 4.55273 135.718 8.93861C135.887 9.10542 136.004 9.31742 136.055 9.54921C136.107 9.781 136.09 10.0227 136.008 10.2454C135.928 10.4709 135.781 10.6663 135.587 10.8049C135.392 10.9435 135.159 11.0185 134.92 11.0198C114.42 11.77 85.6274 24.233 74.5794 43.23C61.7183 65.3246 71.2433 98.2608 71.34 98.5996C71.4204 98.8736 71.4013 99.1672 71.2863 99.4285C71.1713 99.6898 70.9677 99.9019 70.7114 100.027C70.5403 100.085 70.3599 100.11 70.1796 100.1ZM112.897 3.05801C107.76 3.09506 102.687 4.20791 98.005 6.32501C75.0146 16.3922 64.4985 27.5 60.4612 45.9646C56.424 64.4292 62.6128 81.9016 67.1577 91.1218C65.0303 79.6268 62.9996 58.3308 72.5004 41.9958C83.3791 23.2892 110.794 10.681 131.536 8.86601C126.039 5.12069 119.546 3.11414 112.897 3.1064V3.05801Z" fill="#3C4242"/>
<path d="M85.9904 93.0336C85.9904 93.0336 71.9206 66.22 59.1803 84.4668C46.4401 102.714 67.8591 120.622 80.0433 118.202" fill="white"/>
<path d="M77.6494 119.654C70.6628 119.654 62.3466 114.814 57.6808 107.554C55.2257 104.041 53.9514 99.8378 54.0427 95.552C54.1339 91.2663 55.586 87.1209 58.1885 83.7166C61.5488 78.8766 65.441 76.4566 69.5266 76.8196C79.1966 77.4246 86.7392 91.7752 87.0776 92.3802C87.2221 92.6695 87.2473 93.0041 87.1478 93.3119C87.0484 93.6196 86.8322 93.876 86.5458 94.0258C86.2633 94.1711 85.9349 94.1993 85.6318 94.1042C85.3287 94.0091 85.0752 93.7984 84.9261 93.5176C84.9261 93.3724 77.6736 79.7478 69.3815 79.2396C66.1421 79.0218 63.0235 81.0062 60.1709 85.096C57.8673 88.1178 56.5796 91.7926 56.4927 95.5927C56.4059 99.3928 57.5243 103.123 59.6874 106.247C64.3773 113.507 73.3946 118.202 79.801 116.943C80.1179 116.886 80.4446 116.955 80.7111 117.136C80.9776 117.317 81.1629 117.595 81.2273 117.911C81.2838 118.226 81.2139 118.55 81.0327 118.812C80.8516 119.075 80.5739 119.256 80.2603 119.315C79.4034 119.514 78.5288 119.628 77.6494 119.654Z" fill="#3C4242"/>
<path d="M86.2315 236.588C86.0642 236.586 85.8989 236.551 85.7453 236.485C85.5917 236.418 85.4529 236.322 85.3371 236.201C85.047 235.862 55.3842 203.676 35.0289 195.884C34.8639 195.842 34.7095 195.766 34.576 195.66C34.4424 195.555 34.3326 195.422 34.2537 195.271C34.1749 195.12 34.1288 194.954 34.1185 194.784C34.1081 194.614 34.1337 194.444 34.1937 194.284C34.2536 194.125 34.3465 193.98 34.4663 193.859C34.5861 193.738 34.73 193.643 34.8887 193.582C35.0475 193.52 35.2174 193.493 35.3873 193.502C35.5573 193.511 35.7235 193.555 35.875 193.633C56.7864 201.74 85.8931 233.2 87.126 234.555C87.349 234.785 87.4737 235.094 87.4737 235.414C87.4737 235.735 87.349 236.043 87.126 236.273C87.0058 236.383 86.8646 236.468 86.7109 236.522C86.5572 236.576 86.3941 236.599 86.2315 236.588Z" fill="#3C4242"/>
</svg>
